<?xml version="1.0" encoding="UTF-8" standalone="no"?>
<!-- Created with Inkscape (http://www.inkscape.org/) -->

<svg
   width="180"
   height="180"
   viewBox="0 0 180 180"
   version="1.1"
   id="svg1"
   inkscape:export-filename="logo_verde.svg"
   inkscape:export-xdpi="96"
   inkscape:export-ydpi="96"
   xmlns:inkscape="http://www.inkscape.org/namespaces/inkscape"
   xmlns:sodipodi="http://sodipodi.sourceforge.net/DTD/sodipodi-0.dtd"
   xmlns="http://www.w3.org/2000/svg"
   xmlns:svg="http://www.w3.org/2000/svg">
  <sodipodi:namedview
     id="namedview1"
     pagecolor="#ffffff"
     bordercolor="#000000"
     borderopacity="0.25"
     inkscape:showpageshadow="2"
     inkscape:pageopacity="0.0"
     inkscape:pagecheckerboard="0"
     inkscape:deskcolor="#d1d1d1"
     inkscape:document-units="px">
    <inkscape:page
       x="0"
       y="0"
       width="180"
       height="180"
       id="page2"
       margin="0"
       bleed="0" />
  </sodipodi:namedview>
  <defs
     id="defs1">
    <linearGradient
       id="linearGradient113"
       inkscape:swatch="gradient">
      <stop
         style="stop-color:#000000;stop-opacity:1;"
         offset="0"
         id="stop112" />
      <stop
         style="stop-color:#001100;stop-opacity:0;"
         offset="1"
         id="stop113" />
    </linearGradient>
    <linearGradient
       id="linearGradient105"
       inkscape:swatch="gradient">
      <stop
         style="stop-color:#000000;stop-opacity:1;"
         offset="0"
         id="stop106" />
      <stop
         style="stop-color:#000000;stop-opacity:0;"
         offset="1"
         id="stop107" />
    </linearGradient>
  </defs>
  <g
     inkscape:label="Camada 1"
     inkscape:groupmode="layer"
     id="layer1">
    <text
       xml:space="preserve"
       style="font-style:normal;font-variant:normal;font-weight:normal;font-stretch:normal;font-size:20.0715px;font-family:'Bauhaus 93';-inkscape-font-specification:'Bauhaus 93, ';text-align:start;writing-mode:lr-tb;direction:ltr;text-anchor:start;opacity:0.95;fill:#ffffff;fill-opacity:1;fill-rule:nonzero;stroke:none;stroke-width:0.215052;stroke-linecap:round;stroke-linejoin:round;stroke-dasharray:none;stroke-opacity:1"
       x="79.672401"
       y="115.91275"
       id="text1"><tspan
         sodipodi:role="line"
         id="tspan1"
         x="79.672401"
         y="115.91275"
         style="font-style:normal;font-variant:normal;font-weight:normal;font-stretch:normal;font-size:20.0715px;font-family:'Bauhaus 93';-inkscape-font-specification:'Bauhaus 93, ';fill:#ffffff;fill-opacity:1;fill-rule:nonzero;stroke:none;stroke-width:0.215052;stroke-dasharray:none;stroke-opacity:1">AniMelody</tspan></text>
    <path
       style="opacity:1;fill:#ffffff;fill-opacity:1;fill-rule:nonzero;stroke:none;stroke-width:0.215052;stroke-linecap:round;stroke-linejoin:round;stroke-dasharray:none;stroke-opacity:1"
       d="M 109.99315,92.569037 C 97.471382,71.794114 65.014782,93.153524 66.089828,112.45159 c 0.82098,14.73727 15.740588,15.20089 26.009364,14.66956 3.53494,-0.18289 6.53316,-0.9707 9.413718,-2.59092 2.94144,-1.65447 8.38006,-8.00071 7.99037,-6.77625 -4.56293,14.33742 -33.344325,17.9518 -42.964728,4.71908 -14.837377,-20.4086 26.5385,-56.689782 42.030408,-34.701263 2.18586,3.102527 4.03076,6.929959 2.82075,9.868124 -0.36633,-0.06928 -0.22442,-2.347732 -0.63562,-3.214634"
       id="path1"
       sodipodi:nodetypes="csssssscc" />
    <path
       style="opacity:1;fill:#ffffff;fill-opacity:1;fill-rule:nonzero;stroke:none;stroke-width:0.215052;stroke-linecap:round;stroke-linejoin:round;stroke-dasharray:none;stroke-opacity:1"
       d="M 81.488765,88.349958 C 84.225177,72.064287 80.849491,49.375683 77.060606,33.128276 76.389683,30.251218 72.967325,22.88208 72.98767,21.975018 c 0.01672,-0.745996 8.96946,-0.06549 10.324452,0.08288 5.408018,0.592132 20.366408,3.761803 22.271008,10.158705 1.97398,6.629923 0.0218,25.14163 -1.91063,36.736356 -0.3871,2.322649 -0.67302,4.174133 -1.03543,6.313346 -0.69321,4.091856 -1.60242,6.8813 -2.17758,7.69147 -0.26048,0.36693 -0.996588,-0.397563 -0.643758,-1.802003 0.847598,-3.373758 1.751578,-10.188875 1.877328,-11.508312 0.69371,-7.278713 1.58829,-14.75058 1.93648,-22.06256 0.72926,-15.314542 -2.08053,-19.02725 -14.118516,-20.887059 -4.212619,-0.650827 -10.57766,-1.764875 -10.496816,-0.602511 0.02228,0.320435 5.074312,39.236634 5.339828,44.281539 0.286072,5.435261 -0.0075,13.659644 -0.65119,15.498538 -0.342532,0.977975 -2.596012,3.747642 -1.823368,1.172158"
       id="path2"
       sodipodi:nodetypes="cssssssssssssssc" />
    <path
       style="opacity:1;fill:#ffffff;fill-opacity:1;fill-rule:nonzero;stroke:none;stroke-width:0.215052;stroke-linecap:round;stroke-linejoin:round;stroke-dasharray:none;stroke-opacity:1"
       d="m 102.0843,28.761881 c 14.27958,4.737946 26.01665,11.322066 31.7522,31.435476 0.90642,3.178615 1.67127,7.450987 2.06156,11.551206 0.36911,3.877925 0.18421,7.824099 -0.31723,13.146581 -0.51828,5.50106 -2.00892,10.487027 -2.63166,12.484489 -0.33782,1.083645 -1.32843,4.060207 -2.23511,5.101767 -1.25763,1.44469 1.07198,-4.877655 1.53639,-7.361483 0.70737,-3.783423 1.50102,-10.867576 1.52151,-14.879194 0.0188,-3.693071 -0.30457,-6.950476 -0.74467,-10.499717 -0.49936,-4.026838 -1.56233,-7.541021 -2.205,-9.104326 -1.78212,-4.334962 -6.17028,-13.675269 -9.39329,-16.770717 -3.66294,-3.518017 -15.02255,-8.314789 -15.84708,-6.860692 -1.4334,2.527877 -2.84633,-5.739813 -3.49762,-8.24339 z"
       id="path3"
       sodipodi:nodetypes="csssssssssssc" />
    <path
       style="opacity:1;fill:#ffffff;fill-opacity:1;fill-rule:nonzero;stroke:none;stroke-width:0.215052;stroke-linecap:round;stroke-linejoin:round;stroke-dasharray:none;stroke-opacity:1"
       d="M 73.95329,22.612138 C 69.691565,21.518094 65.019016,21.4522 59.893148,21.376762 55.146314,21.306892 49.719771,20.989218 48.844452,20.476414 c -6.620934,-3.878859 -5.769017,-6.464837 -6.805627,-3.988172 -0.358746,0.857108 -0.05541,6.751353 0.980698,8.840508 0.298918,0.602733 1.121362,2.059815 2.039794,3.254082 0.729766,0.948935 1.1348,1.776476 1.930167,2.657934 1.105311,1.224948 1.796548,1.033481 2.048745,0.511627 0.373625,-0.773117 -6.509256,1.682127 -7.423218,2.037652 -2.486405,0.967187 -4.819806,2.345486 -7.164848,3.589395 -10.028212,5.319387 -21.134606,12.057305 -26.7053346,22.169794 -5.6043966,10.173611 -1.907727,19.630518 2.3228536,23.522962 1.464839,1.347755 3.018959,-5.214699 5.201213,-8.547764 3.244186,-4.954997 3.304236,-5.239182 6.074345,-7.50287 1.250104,-1.021567 -0.361923,0.986827 0.234121,4.314681 1.065273,5.947664 1.845344,7.85236 3.181739,10.606489 2.553465,5.262346 6.931449,11.998108 12.168109,13.997307 1.009484,0.385388 0.792623,-1.402067 0.715942,-2.869656 -0.154876,-2.964229 0.06548,-5.067103 0.71511,-7.973101 0.702509,-3.142601 3.254191,-11.852728 3.9081,-8.867915 1.131416,5.16442 4.191715,12.745776 5.210797,14.357579 9.053911,14.319874 10.613382,7.165256 9.105141,29.186894 -0.436792,6.37755 -6.064312,19.46317 -8.380745,22.18752 -0.988539,1.16262 -3.387101,3.26214 -4.300157,5.71633 -0.469986,1.26328 30.586752,-7.82191 39.747031,-15.17567 1.051143,-0.84384 3.692447,-2.70166 3.147638,-3.38477 -1.224809,-1.53575 -9.443676,5.25668 -13.079805,6.80074 -1.02059,0.43339 -6.344538,2.66936 -8.502443,3.44689 -2.433944,0.87699 -5.277308,1.52994 -6.734612,2.17579 -1.622596,0.71909 -2.23387,0.95696 -4.98436,1.7581 -2.496636,0.7272 -3.121304,0.68635 -4.987046,1.28677 -0.276802,0.0891 0.240837,0.0637 1.131888,-0.78177 0.982556,-0.93213 2.382252,-2.73187 2.834519,-3.54459 2.524851,-4.53708 5.246454,-11.39757 6.381775,-16.26333 1.75072,-7.50324 1.698413,-14.74312 1.34062,-19.02699 -0.990824,-11.863217 -2.205956,-1.74111 -11.416745,-19.660388 -1.942176,-3.778435 -1.933113,-11.404754 -2.616649,-14.828495 -0.412283,-2.065061 -4.17876,1.239333 -6.114601,4.246793 -2.423892,3.765683 -3.505353,9.832228 -3.642725,10.446749 -0.215865,0.965639 -0.436959,2.937206 -0.56451,4.416583 -0.210319,2.439384 0.421673,3.79382 -2.170077,0.87288 -3.782367,-4.262774 -6.45511,-12.243788 -7.075251,-14.488278 -1.487002,-5.381933 -1.436395,-10.234798 -1.686089,-12.276363 -0.213402,-1.744828 -1.305476,-0.987638 -3.713849,1.254871 -3.087996,2.875328 -7.249754,8.336286 -8.173124,10.002889 -2.173733,3.923388 -2.422576,7.511624 -3.8549816,4.170043 -0.67617,-1.577399 -2.100606,-6.176263 -1.128544,-9.902069 C 12.772402,51.083234 36.440817,39.376689 52.498217,33.341945 52.976762,33.162097 52.518787,32.398686 50.350554,31.299704 49.504262,30.870757 48.333955,29.612667 47.46625,28.586889 46.582307,27.541908 46.233314,27.05463 45.972531,26.624305 45.316438,25.541678 45.195746,25.411107 44.886619,24.615868 44.208845,22.87227 43.452053,20.64998 42.91771,21.755062 c -0.637556,1.31853 0.849077,1.043729 1.519816,1.602825 2.420884,2.017934 6.50347,1.980258 9.630641,2.656058 6.248378,1.350315 13.705996,0.724789 17.943784,1.999106 10.998495,3.307288 4.599556,-0.230756 1.941339,-5.400865 z"
       id="path5"
       sodipodi:nodetypes="cssssssssssssssssssssssssssssssssssssssssssssssssssssssscc" />
    <path
       id="path6"
       style="opacity:1;fill:#ffffff;fill-opacity:1;fill-rule:nonzero;stroke:none;stroke-width:0.215052;stroke-linecap:round;stroke-linejoin:round;stroke-dasharray:none;stroke-opacity:1"
       d="m 27.750933,85.275306 c 0.737307,3.209884 1.133888,6.30388 -0.03683,9.178466 -1.091995,2.68126 -3.783316,4.501308 -6.57993,5.571128 -4.32025,1.65266 -9.952471,1.56146 -10.734183,2.69488 -0.7232316,1.04862 0.365173,3.74169 1.127826,7.17783 0.834922,3.76178 4.591293,12.13849 5.982012,15.46936 0.827409,1.98172 5.74645,8.97183 6.976651,10.28363 2.411064,2.57096 19.445407,-0.71873 20.646583,4.10608 0.569859,2.28896 1.114886,4.03316 1.938274,6.16619 1.089745,2.82306 2.309569,11.40799 2.63001,11.07635 1.911849,-1.97923 12.783075,-6.14441 11.22721,-6.59251 -2.777538,-0.79994 -7.721091,4.48198 -9.598293,1.71643 -1.451389,-2.13824 -2.500135,-12.5859 -4.261761,-14.31607 -2.835281,-2.78468 -14.815976,-2.45968 -18.71681,-3.8964 -4.686602,-1.7261 -8.610496,-7.75498 -9.422166,-9.93222 -1.588187,-4.26023 -6.50616,-16.63173 -5.916835,-19.48192 0.208832,-1.01001 8.889618,-2.61109 10.039918,-3.09727 0.964016,-0.40746 1.801462,-1.12446 2.811064,-1.748423 1.139699,-0.704348 2.112328,-1.449761 2.711883,-2.422846 0.67859,-1.101356 1.124596,-1.521984 1.263843,-2.595696 0.08112,-0.625518 0.291765,-1.306127 0.297544,-3.054767 0.0038,-1.10476 -0.119364,-2.52711 -0.277706,-4.015397 -0.0581,-0.06283 -0.117406,-0.124253 -0.175692,-0.187026 -0.07626,-0.09274 -0.15498,-0.185851 -0.232366,-0.277706 -0.477679,-0.405749 -0.64206,-0.528705 -1.110824,-1.068318 -0.16601,-0.191105 -0.311281,-0.398777 -0.467565,-0.597918 -0.0406,-0.05172 -0.08074,-0.104494 -0.121844,-0.155857 z"
       sodipodi:nodetypes="sssssscsscssssssssssccccssss" />
  </g>
</svg>
